<?xml version="1.0" encoding="UTF-8"?>
<svg width="150px" height="34px" viewBox="0 0 150 34" version="1.1" xmlns="http://www.w3.org/2000/svg" xmlns:xlink="http://www.w3.org/1999/xlink">
    <title>420A8570-CA76-4674-8572-824C02890A15</title>
    <defs>
        <linearGradient x1="69.1271833%" y1="31.957084%" x2="10.704277%" y2="92.08672%" id="linearGradient-1">
            <stop stop-color="#7F4F12" stop-opacity="0" offset="0%"></stop>
            <stop stop-color="#D4890B" offset="100%"></stop>
        </linearGradient>
    </defs>
    <g id="UI-Design" stroke="none" stroke-width="1" fill="none" fill-rule="evenodd">
        <g id="Q&amp;A/-Nuova" transform="translate(-30.000000, -25.000000)">
            <g id="Logo" transform="translate(30.000000, 25.000000)">
                <path d="M48.5548436,7.86664249 L45.0304358,7.86664249 L45.0304358,6.5547343 C45.0304358,5.64042154 45.2040103,5.01868886 45.5458673,4.7052102 C45.8972496,4.38389457 46.4555455,4.22088567 47.2017039,4.22088567 C47.2308093,4.2219306 47.3657529,4.23237989 47.9563293,4.30239012 C48.6929623,4.48525267 49.3798514,4.44188812 49.8762319,3.93039544 C50.1783996,3.61900664 50.3318648,3.25171414 50.3318648,2.83844478 C50.3318648,2.53228062 50.2403149,2.24388025 50.0588026,1.98160311 C49.8852282,1.73186511 49.6608515,1.53750834 49.3909644,1.40375744 C48.5024538,0.965409781 47.52451,0.742839932 46.4841218,0.742839932 C45.6310669,0.742839932 44.8055299,0.939286559 44.0297369,1.32695517 C43.2401849,1.72298321 42.5929851,2.36038982 42.1066591,3.21984381 C41.6256251,4.06937098 41.3816683,5.16027672 41.3816683,6.46225809 L41.3816683,7.86664249 L39.9274532,7.86664249 C39.4882252,7.86664249 39.1056206,8.01815718 38.7907523,8.3159619 C38.4695338,8.61951374 38.3070724,9.00665988 38.3070724,9.46695105 C38.3070724,9.90320885 38.467417,10.2830405 38.7838729,10.5949518 C39.0992703,10.9073855 39.4839917,11.0662147 39.9274532,11.0662147 L41.3816683,11.0662147 L41.3816683,22.8164398 C41.3816683,23.3159158 41.5578887,23.7422468 41.9066252,24.0849835 C42.253774,24.4282426 42.6855934,24.6022232 43.1899118,24.6022232 C43.6921134,24.6022232 44.1276371,24.42981 44.4848406,24.0896856 C44.8468068,23.7464265 45.0304358,23.3185281 45.0304358,22.8164398 L45.0304358,11.0662147 L48.5548436,11.0662147 C49.0210603,11.0662147 49.4131904,10.9052956 49.7201208,10.5892047 C50.0217593,10.2778159 50.1752245,9.90059653 50.1752245,9.46695105 C50.1752245,9.00979467 50.0201717,8.62473838 49.7132413,8.32170901 C49.4068401,8.01972457 49.017356,7.86664249 48.5548436,7.86664249" id="Fill-39" fill="#1D3653"></path>
                <path d="M62.3933831,14.4637487 L54.0094203,14.4637487 C54.105733,13.7072202 54.333814,13.0593643 54.6883715,12.533765 C55.1053735,11.9162121 55.6319179,11.4569658 56.2526582,11.168043 C57.5216567,10.5802705 58.8509829,10.5802705 60.118923,11.168043 C60.7412508,11.4569658 61.2736163,11.9177795 61.7012021,12.5368998 C62.0642267,13.0614541 62.2960121,13.7087875 62.3933831,14.4637487 M62.4150799,8.6868594 C61.2259892,7.93712294 59.8029963,7.55676883 58.1857906,7.55676883 C56.4601008,7.55676883 54.9804846,7.96533602 53.7892771,8.77097618 C52.601774,9.57504894 51.7106174,10.6424438 51.1390918,11.9433802 C50.5765625,13.2249855 50.2913289,14.6424315 50.2913289,16.1565334 C50.2913289,18.8534948 51.0523046,20.9830599 52.5541468,22.487235 C54.0570474,23.9929775 56.1632251,24.7568205 58.8134104,24.7568205 C60.0988137,24.7568205 61.169895,24.6366536 61.9986071,24.4004997 C62.8209689,24.1653907 63.6618524,23.8095924 64.5016775,23.3414643 C65.1748076,22.9579754 65.5156062,22.457977 65.5156062,21.8560979 C65.5156062,21.3921495 65.3457361,21.003436 65.0107586,20.6998841 C64.6847774,20.4057367 64.2995268,20.2557894 63.8640031,20.2557894 C63.5951744,20.2557894 63.3453966,20.3116931 63.1226074,20.4214106 C62.520918,20.7176479 61.8985901,20.9480547 61.2720288,21.1042716 C60.6502301,21.2604885 59.907776,21.3404255 59.0642466,21.3404255 C57.5195399,21.3404255 56.3098108,20.9673859 55.4683981,20.2312335 C54.7217105,19.5776305 54.2401473,18.6732446 54.0332339,17.5400192 L64.2095644,17.5400192 C64.7583348,17.5400192 65.2081466,17.3639487 65.5462993,17.0165099 C65.8802184,16.6742957 66.0490301,16.2495321 66.0490301,15.7542358 C66.0490301,14.2981274 65.7399829,12.9318829 65.1308848,11.6946872 C64.5149073,10.4475645 63.6015247,9.43555094 62.4150799,8.6868594" id="Fill-41" fill="#1D3653"></path>
                <path d="M80.1496776,14.4637487 L71.7657148,14.4637487 C71.8620274,13.7072202 72.0901085,13.0593643 72.444666,12.533765 C72.861668,11.9162121 73.3882124,11.4569658 74.0089527,11.168043 C75.2779512,10.5802705 76.6072774,10.5802705 77.8752175,11.168043 C78.4975453,11.4569658 79.0299108,11.9177795 79.4574966,12.5368998 C79.8205212,13.0614541 80.0523066,13.7087875 80.1496776,14.4637487 M80.1713744,8.6868594 C78.9822837,7.93712294 77.5592908,7.55676883 75.9420851,7.55676883 C74.2163953,7.55676883 72.7367791,7.96533602 71.5455716,8.77097618 C70.3580684,9.57504894 69.4669119,10.6424438 68.8953863,11.9433802 C68.3328569,13.2249855 68.0476233,14.6424315 68.0476233,16.1565334 C68.0476233,18.8534948 68.8085991,20.9830599 70.3104413,22.487235 C71.8133419,23.9929775 73.9195195,24.7568205 76.5697048,24.7568205 C77.8551082,24.7568205 78.9261895,24.6366536 79.7549016,24.4004997 C80.5772634,24.1653907 81.4181469,23.8095924 82.257972,23.3414643 C82.9311021,22.9579754 83.2719007,22.457977 83.2719007,21.8560979 C83.2719007,21.3921495 83.1020306,21.003436 82.7670531,20.6998841 C82.4410719,20.4057367 82.0558213,20.2557894 81.6202976,20.2557894 C81.3514689,20.2557894 81.1016911,20.3116931 80.8789019,20.4214106 C80.2772125,20.7176479 79.6548846,20.9480547 79.0283232,21.1042716 C78.4065246,21.2604885 77.6640705,21.3404255 76.8205411,21.3404255 C75.2758344,21.3404255 74.0661053,20.9673859 73.2246926,20.2312335 C72.478005,19.5776305 71.9964418,18.6732446 71.7895283,17.5400192 L81.9658589,17.5400192 C82.5146293,17.5400192 82.9644411,17.3639487 83.3025938,17.0165099 C83.6365129,16.6742957 83.8053246,16.2495321 83.8053246,15.7542358 C83.8053246,14.2981274 83.4962774,12.9318829 82.8871793,11.6946872 C82.2712017,10.4475645 81.3578192,9.43555094 80.1713744,8.6868594" id="Fill-43" fill="#1D3653"></path>
                <path d="M94.2006341,21.3402688 C92.7522401,21.3402688 91.6245355,20.9034885 90.7540173,20.0053722 C89.8898495,19.1145703 89.4522091,17.819381 89.4522091,16.1568991 C89.4522091,14.4938948 89.8898495,13.199228 90.7540173,12.3079037 C91.6250647,11.4103098 92.7527693,10.9735295 94.2006341,10.9735295 C95.0939074,10.9735295 95.9474915,11.1731109 96.7349267,11.5660042 C97.4895522,11.9432235 98.170091,12.4453118 98.7601382,13.058685 L98.7601382,19.2551132 C98.1695618,19.8695314 97.489023,20.3716197 96.7349267,20.7477941 C95.9490791,21.1406874 95.0960242,21.3402688 94.2006341,21.3402688 M100.600662,0.897802883 C100.09899,0.897802883 99.662937,1.07021615 99.3057335,1.40981803 C98.9437673,1.75359963 98.7601382,2.19246975 98.7601382,2.71441172 L98.7601382,9.39411951 C97.3128026,8.17416506 95.6453238,7.55713456 93.7926284,7.55713456 C92.4331383,7.55713456 91.1270965,7.90248355 89.9110171,8.58325471 C88.6922917,9.26663819 87.6921219,10.2744721 86.9380257,11.5801107 C86.185517,12.8836595 85.8039707,14.4233622 85.8039707,16.1568991 C85.8039707,17.8904361 86.185517,19.4311838 86.9380257,20.7336876 C87.6915927,22.0388037 88.6917625,23.0471601 89.9110171,23.7300211 C91.1260381,24.4113147 92.4320799,24.7566637 93.7926284,24.7566637 C95.6469114,24.7566637 97.3154486,24.1385883 98.7627842,22.9175889 C98.7860686,23.3757902 98.9686392,23.7697284 99.3052043,24.0894766 C99.662937,24.429601 100.09899,24.6020143 100.600662,24.6020143 C101.104981,24.6020143 101.5368,24.4280336 101.885007,24.0847745 C102.232685,23.7420378 102.408906,23.3146619 102.408906,22.8162308 L102.408906,2.71441172 C102.408906,2.21911544 102.234273,1.78912721 101.88977,1.43594125 C101.541563,1.07857558 101.107627,0.897802883 100.600662,0.897802883" id="Fill-45" fill="#1D3653"></path>
                <path d="M112.113516,21.4953362 C111.027617,21.4953362 110.256587,21.2999345 109.822122,20.9138333 C109.393478,20.5345241 109.185506,20.0423626 109.185506,19.4091358 C109.185506,18.0449811 110.645542,17.3537607 113.525396,17.3537607 L116.548131,17.3537607 L116.548131,19.4143604 C116.014178,19.9885488 115.358511,20.4796654 114.595948,20.874126 L114.595419,20.874126 C113.800575,21.2863505 112.964983,21.4953362 112.113516,21.4953362 M117.099548,8.47813486 C116.048576,7.86737394 114.750472,7.55703007 113.243337,7.55703007 C111.357832,7.55703007 109.479206,7.94260882 107.661438,8.70331703 C106.968727,8.99223987 106.603057,9.5235862 106.603057,10.2404074 C106.603057,10.6782326 106.758639,11.0533621 107.063982,11.3532566 C107.369854,11.6557636 107.738699,11.8093681 108.160993,11.8093681 C108.299641,11.8093681 108.464219,11.7858572 108.694417,11.7278636 C109.427875,11.4859626 110.103122,11.3031001 110.702695,11.1824108 C111.289567,11.0643338 111.975397,11.0042504 112.741665,11.0042504 C114.077341,11.0042504 115.059519,11.2733196 115.660679,11.8030985 C116.226383,12.3020521 116.524318,13.1442647 116.546544,14.3093604 L113.149142,14.3093604 C110.709045,14.3093604 108.818248,14.7942074 107.530198,15.7503173 C106.207222,16.7330729 105.536209,18.0679695 105.536209,19.7189572 C105.536209,20.719999 105.789691,21.6191603 106.288718,22.3918852 C106.787215,23.1630427 107.469871,23.7586522 108.318692,24.1604273 C109.152696,24.5559329 110.07137,24.7565592 111.046668,24.7565592 C113.196239,24.7565592 115.043114,24.1337816 116.550248,22.9033779 C116.569299,23.364714 116.74499,23.761787 117.07203,24.0841475 C117.419708,24.4279291 117.852585,24.6019098 118.356904,24.6019098 C118.857518,24.6019098 119.293042,24.4294965 119.651303,24.0898946 C120.01327,23.7466355 120.19637,23.3176922 120.19637,22.8161263 L120.19637,14.0502181 C120.19637,12.9190826 119.945004,11.8543 119.447565,10.8851285 C118.944834,9.90237291 118.154753,9.09255304 117.099548,8.47813486" id="Fill-47" fill="#1D3653"></path>
                <path d="M131.940585,21.216288 C131.765423,21.216288 131.619896,21.2293496 131.492361,21.2570402 L131.19919,21.325483 C130.819231,21.4383354 130.435039,21.495284 130.058255,21.495284 C129.54547,21.495284 129.12053,21.4028078 128.795607,21.2209902 C128.481797,21.0454421 128.416178,20.4754334 128.416178,20.0287263 L128.416178,11.0663714 L131.564331,11.0663714 C132.030548,11.0663714 132.422678,10.9054524 132.729608,10.5888389 C133.031776,10.2769277 133.184712,9.89918588 133.184712,9.46658533 C133.184712,9.01047388 133.029659,8.62594005 132.723258,8.32186575 C132.416327,8.01988131 132.026843,7.86679923 131.564331,7.86679923 L128.416178,7.86679923 L128.416178,5.78112121 C128.416178,5.51988899 128.320394,5.27851042 128.138882,5.08258626 C127.759981,4.67401907 127.136595,4.64162628 126.612697,5.159911 L122.380232,9.25028505 C122.094999,9.46919765 121.94365,9.75812048 121.94365,10.0862281 C121.94365,10.3547749 122.044196,10.5951085 122.232059,10.7805834 C122.42098,10.9671032 122.664408,11.0663714 122.936941,11.0663714 L124.76741,11.0663714 L124.76741,20.2763745 C124.76741,23.2079224 126.488337,24.756507 129.744974,24.756507 C130.718685,24.756507 131.650589,24.5569256 132.531691,24.154628 C133.304838,23.7570325 133.467299,23.1567209 133.467299,22.7235979 C133.467299,22.3040589 133.309601,21.943036 132.998966,21.6499335 C132.693094,21.3620556 132.336949,21.216288 131.940585,21.216288" id="Fill-49" fill="#1D3653"></path>
                <path d="M149.480864,8.24981791 C149.132657,7.8929747 148.698721,7.712202 148.191227,7.712202 C147.657803,7.712202 146.932284,7.91387327 146.506814,8.88356726 L141.952602,19.765979 L137.48306,8.81930414 C137.349705,8.50373562 137.128503,8.23884615 136.825806,8.02933791 C136.517817,7.81878475 136.172785,7.712202 135.799177,7.712202 C135.291683,7.712202 134.857218,7.8929747 134.510069,8.24981791 C134.165566,8.60300386 133.990933,9.03299209 133.990933,9.52828838 C133.990933,9.76339737 134.042265,10.010523 134.145986,10.2654857 L139.984014,24.3072398 L137.047008,31.6118151 C136.967629,31.8213233 136.927411,32.0339663 136.927411,32.245042 C136.927411,32.7199621 137.097281,33.1342764 137.430671,33.4770131 C137.768294,33.8239295 138.186354,34 138.67321,34 C139.190758,34 139.90199,33.7931041 140.357623,32.7983318 L143.467674,25.4075499 L149.879874,10.1933856 C149.959782,9.98492229 150,9.76130751 150,9.52828838 C150,9.03403702 149.825367,8.60404879 149.480864,8.24981791" id="Fill-51" fill="#1D3653"></path>
                <g id="Group-12">
                    <path d="M10.9353362,25.4623042 L10.7146638,25.2439141 C9.02548818,23.5762076 9.02548818,20.8719317 10.7146638,19.2037027 L28.8987028,1.25077986 C30.5884077,-0.416926618 33.3269678,-0.416926618 35.0166726,1.25077986 L35.2378741,1.46916999 C36.9265206,3.13687646 36.9265206,5.84115237 35.2378741,7.50885885 L17.0533059,25.4623042 C15.3636011,27.1300107 12.6245118,27.1300107 10.9353362,25.4623042" id="Fill-53" fill="#F3C05C"></path>
                    <g id="Group-57" transform="translate(9.405652, 12.176034)" fill="url(#linearGradient-1)" fill-opacity="0.7">
                        <path d="M8.48091744,0 L16.0430476,5.08253401 L7.69242381,13.4043475 C6.81343863,14.2799979 5.65504094,14.718868 4.49770163,14.718868 C3.35359208,14.718868 2.20948253,14.2909697 1.33208491,13.4330831 C-0.432764926,11.707383 -0.445465494,8.89600192 1.30297944,7.15358303 L1.30297944,7.15358303 L8.48091744,0 Z" id="Clip-56"></path>
                    </g>
                    <path d="M16.4199709,19.9361456 L7.76717935,11.3933297 C6.05524855,9.70315722 3.26588618,9.54746282 1.47457682,11.1566533 C-0.437387939,12.8750388 -0.490306975,15.8003172 1.31740728,17.5850557 L10.059632,26.2161681 C10.938088,27.0829366 12.0885478,27.5165821 13.2395368,27.5165821 C14.3910551,27.5165821 15.5420441,27.0829366 16.4199709,26.2161681 L21.2985768,21.3995685 L20.2481339,21.3739677 C18.8431335,21.3400076 17.4926397,20.8326946 16.4199709,19.9361456" id="Fill-58" fill="#F9D77D"></path>
                </g>
            </g>
        </g>
    </g>
</svg>