<svg xmlns="http://www.w3.org/2000/svg" fill="none" width="256" height="256" viewBox="0 0 284 66"  xmlns:v="https://vecta.io/nano"><g fill-rule="evenodd"><path d="M91.753 15.057h-6.66v-2.511c0-1.75.328-2.94.974-3.54.664-.615 1.719-.927 3.129-.927.055.002.31.022 1.426.156 1.392.35 2.69.267 3.628-.712.571-.596.861-1.299.861-2.09a2.86 2.86 0 0 0-.516-1.64c-.328-.478-.752-.85-1.262-1.106-1.679-.839-3.527-1.265-5.493-1.265-1.612 0-3.172.376-4.638 1.118-1.492.758-2.715 1.978-3.634 3.623-.909 1.626-1.37 3.714-1.37 6.206v2.688H75.45a3.01 3.01 0 0 0-2.148.86c-.607.581-.914 1.322-.914 2.203 0 .835.303 1.562.901 2.159a2.96 2.96 0 0 0 2.161.902h2.748v22.49c0 .956.333 1.772.992 2.428s1.472.99 2.425.99a3.41 3.41 0 0 0 2.447-.981c.684-.657 1.031-1.476 1.031-2.437v-22.49h6.66c.881 0 1.622-.308 2.202-.913a3.01 3.01 0 0 0 .86-2.148c0-.875-.293-1.612-.873-2.192s-1.315-.871-2.189-.871zM117.9 27.684h-15.843c.182-1.448.613-2.688 1.283-3.694.788-1.182 1.783-2.061 2.956-2.614 2.398-1.125 4.91-1.125 7.306 0 1.176.553 2.182 1.435 2.99 2.62.686 1.004 1.124 2.243 1.308 3.688zm.041-11.057c-2.247-1.435-4.936-2.163-7.992-2.163-3.261 0-6.057.782-8.308 2.324a14.02 14.02 0 0 0-5.007 6.072c-1.063 2.453-1.602 5.166-1.602 8.064 0 5.162 1.438 9.238 4.276 12.117s6.82 4.344 11.828 4.344c2.429 0 4.453-.23 6.019-.682 1.554-.45 3.143-1.131 4.73-2.027 1.272-.734 1.916-1.691 1.916-2.843 0-.888-.321-1.632-.954-2.213-.616-.563-1.344-.85-2.167-.85a3.11 3.11 0 0 0-1.401.317c-1.137.567-2.313 1.008-3.497 1.307-1.175.299-2.578.452-4.172.452-2.919 0-5.205-.714-6.795-2.123-1.411-1.251-2.321-2.982-2.712-5.151h19.23c1.037 0 1.887-.337 2.526-1.002.631-.655.95-1.468.95-2.416 0-2.787-.584-5.402-1.735-7.77a14.04 14.04 0 0 0-5.132-5.757zm33.519 11.057h-15.843c.182-1.448.613-2.688 1.283-3.694.788-1.182 1.783-2.061 2.956-2.614 2.398-1.125 4.91-1.125 7.306 0 1.176.553 2.182 1.435 2.99 2.62.686 1.004 1.124 2.243 1.308 3.688zm.041-11.057c-2.247-1.435-4.936-2.163-7.992-2.163-3.261 0-6.057.782-8.308 2.324a14.02 14.02 0 0 0-5.008 6.072c-1.063 2.453-1.602 5.166-1.602 8.064 0 5.162 1.438 9.238 4.276 12.117s6.82 4.344 11.828 4.344c2.429 0 4.453-.23 6.019-.682 1.554-.45 3.143-1.131 4.73-2.027 1.272-.734 1.916-1.691 1.916-2.843 0-.888-.321-1.632-.954-2.213-.616-.563-1.344-.85-2.167-.85a3.11 3.11 0 0 0-1.401.317c-1.137.567-2.313 1.008-3.497 1.307-1.175.299-2.578.452-4.172.452-2.919 0-5.205-.714-6.795-2.123-1.411-1.251-2.321-2.982-2.712-5.151h19.23c1.037 0 1.887-.337 2.526-1.002.631-.655.95-1.468.95-2.416 0-2.787-.584-5.402-1.735-7.77a14.04 14.04 0 0 0-5.132-5.757zm26.509 24.218c-2.737 0-4.868-.836-6.513-2.555-1.633-1.705-2.46-4.184-2.46-7.366s.827-5.661 2.46-7.367c1.646-1.718 3.777-2.554 6.513-2.554 1.688 0 3.301.382 4.789 1.134a13.97 13.97 0 0 1 3.827 2.857v11.86a13.92 13.92 0 0 1-3.827 2.857c-1.485.752-3.097 1.134-4.789 1.134zm12.094-39.127c-.948 0-1.772.33-2.447.98-.684.658-1.031 1.498-1.031 2.497V17.98c-2.735-2.335-5.886-3.516-9.387-3.516-2.569 0-5.037.661-7.335 1.964s-4.193 3.237-5.618 5.736-2.143 5.442-2.143 8.76.721 6.267 2.143 8.76c1.424 2.498 3.314 4.428 5.618 5.735 2.296 1.304 4.764 1.965 7.335 1.965 3.504 0 6.657-1.183 9.392-3.52.044.877.389 1.631 1.025 2.243.676.651 1.5.981 2.448.981s1.769-.333 2.427-.99a3.31 3.31 0 0 0 .99-2.428V5.195c0-.948-.33-1.771-.981-2.447a3.26 3.26 0 0 0-2.436-1.03zm21.756 39.424c-2.052 0-3.509-.374-4.33-1.113-.81-.726-1.203-1.668-1.203-2.88 0-2.611 2.759-3.934 8.201-3.934h5.712v3.944c-1.009 1.099-2.248 2.039-3.689 2.794-1.502.789-3.082 1.189-4.691 1.189zm9.422-24.915c-1.986-1.169-4.439-1.763-7.287-1.763-3.563 0-7.113.738-10.548 2.194-1.309.553-2 1.57-2 2.942 0 .838.294 1.556.871 2.13a2.84 2.84 0 0 0 2.073.873c.262 0 .573-.045 1.008-.156 1.386-.463 2.662-.813 3.795-1.044 1.109-.226 2.405-.341 3.853-.341 2.524 0 4.38.515 5.516 1.529 1.069.955 1.632 2.567 1.674 4.797h-6.42c-4.611 0-8.184.928-10.618 2.758-2.5 1.881-3.768 4.436-3.768 7.596 0 1.916.479 3.637 1.422 5.116s2.232 2.616 3.836 3.385c1.576.757 3.312 1.141 5.155 1.141 4.062 0 7.552-1.192 10.4-3.547.036.883.368 1.643.986 2.26.657.658 1.475.991 2.428.991a3.42 3.42 0 0 0 2.446-.98 3.26 3.26 0 0 0 1.03-2.438V26.892c0-2.165-.475-4.203-1.415-6.058-.95-1.881-2.443-3.431-4.437-4.607zm28.038 24.381a3.94 3.94 0 0 0-.847.078l-.554.131a7.49 7.49 0 0 1-2.156.325c-.969 0-1.772-.177-2.386-.525-.593-.336-.717-1.427-.717-2.282V21.181h5.949c.881 0 1.622-.308 2.202-.914a3.01 3.01 0 0 0 .86-2.148c0-.873-.293-1.609-.872-2.191s-1.316-.871-2.19-.871h-5.949v-3.992a1.95 1.95 0 0 0-.524-1.337c-.716-.782-1.894-.844-2.884.148l-7.998 7.829c-.539.419-.825.972-.825 1.6a1.84 1.84 0 0 0 .545 1.329c.357.357.817.547 1.332.547h3.459v17.628c0 5.611 3.252 8.575 9.406 8.575 1.84 0 3.601-.382 5.266-1.152 1.461-.761 1.768-1.91 1.768-2.739 0-.803-.298-1.494-.885-2.055-.578-.551-1.251-.83-2-.83zm33.15-24.818c-.658-.683-1.478-1.029-2.437-1.029-1.008 0-2.379.386-3.183 2.242l-8.606 20.829-8.446-20.952c-.252-.604-.67-1.111-1.242-1.512-.582-.403-1.234-.607-1.94-.607-.959 0-1.78.346-2.436 1.029-.651.676-.981 1.499-.981 2.447 0 .45.097.923.293 1.411l11.032 26.876-5.55 13.981a3.45 3.45 0 0 0-.226 1.212 3.3 3.3 0 0 0 .951 2.358c.638.664 1.428 1.001 2.348 1.001.978 0 2.322-.396 3.183-2.3l17.994-43.266a3.58 3.58 0 0 0 .227-1.273 3.42 3.42 0 0 0-.981-2.447z" fill="#1d3653"/><path d="M20.664 48.735l-.417-.418a8.18 8.18 0 0 1 0-11.561L54.609 2.394a8.18 8.18 0 0 1 11.561 0l.418.418a8.18 8.18 0 0 1 0 11.56L32.225 48.735a8.18 8.18 0 0 1-11.561 0z" fill="#f3c05c"/><path d="M33.8 23.305l14.29 9.728-15.78 15.928c-1.661 1.676-3.85 2.516-6.037 2.516-2.162 0-4.324-.819-5.982-2.461a8.5 8.5 0 0 1-.055-12.019L33.8 23.305z" fill="url(#A)" fill-opacity=".7"/><path d="M31.028 38.158L14.677 21.807c-3.235-3.235-8.506-3.533-11.891-.453-3.613 3.289-3.713 8.888-.297 12.304l16.52 16.52c1.66 1.659 3.834 2.489 6.009 2.489s4.351-.83 6.01-2.489l9.219-9.219-1.985-.049c-2.655-.065-5.207-1.036-7.234-2.752z" fill="#f9d77d"/></g><defs><linearGradient id="A" x1="38.73" x2="22.381" y1="32.176" y2="50.754" gradientUnits="userSpaceOnUse"><stop stop-color="#7f4f12" stop-opacity="0" offset="0"/><stop stop-color="#d4890b" offset="1"/></linearGradient></defs></svg>